# xmcd
#
# Track frame offsets:
#	150
#	14073
#	31933
#	45943
#	63937
#	79105
#	93803
#	107731
#	121447
#	136495
#	153095
#	168216
#
# Disc length: 2460 seconds
#
# Revision: 3
# Processed by: cddbd v1.5.1PL0 Copyright (c) Steve Scherf et al.
# Submitted via: audiograbber 1.83.01
#
DISCID=8a099a0c
DTITLE=Various Artists CDX - CDX
DYEAR=2004
DGENRE=Country
TTITLE0=Norah Jones and Dolly Parton - Creepin' In
TTITLE1=John Conlee - From Your Knees
TTITLE2=Jimmy Buffett and Friends - Hey good lookin'
TTITLE3=Doug Stone - How Do I Get Off The Moon
TTITLE4=Brad Cotter - I Meant To
TTITLE5=David Lee Murphy - Loco (hot new mix)
TTITLE6=Buddy Jewell - One Step At A Time
TTITLE7=Sherrie Austin - Son Of A Preacher Man
TTITLE8=Lisa Brokop - Wildflower
TTITLE9=One Mile South - That's What I Believe
TTITLE10=Kevin Maines - What I Am
TTITLE11=Zona Jones - Whiskey Kind Of Way
EXTD=
EXTT0=
EXTT1=
EXTT2=
EXTT3=
EXTT4=
EXTT5=
EXTT6=
EXTT7=
EXTT8=
EXTT9=
EXTT10=
EXTT11=
PLAYORDER=
